<svg xmlns="http://www.w3.org/2000/svg" viewBox="0 0 108 108">
  <g id="Layer_3" data-name="Layer 3">
    <path d="M24.3,8.9a54,54,0,0,1,59.4,0L81,12.7a49.3,49.3,0,0,0-54,.1ZM108,52.6A53.8,53.8,0,0,0,85.9,10.4L77.5,22.3a39.2,39.2,0,0,1,16,30.3Zm-71.8,0a20.3,20.3,0,0,1,1.5-6L5.9,29.5A54.8,54.8,0,0,0,.1,52.6Zm2.9-8.4A15.9,15.9,0,0,1,43,39.9l-7.9-11-13-18.5A53.3,53.3,0,0,0,7.2,27.2Zm6.1-5.8a18,18,0,0,1,17.6,0l7.1-10.1a30.6,30.6,0,0,0-31.8.1ZM90.8,52.6A36.8,36.8,0,0,0,76,24.5l-3,4.3L65.1,39.9a18.1,18.1,0,0,1,6.8,12.7ZM31.5,19.1a41.7,41.7,0,0,1,45,0l2.9-4.2A46.6,46.6,0,0,0,54,7.4,45.9,45.9,0,0,0,28.6,15Zm5.1,7.1a32.7,32.7,0,0,1,17.5-5,33.1,33.1,0,0,1,17.4,4.9l3.4-4.8a38.9,38.9,0,0,0-41.8,0ZM-.2,55.7a28.3,28.3,0,0,0,.3,4.1H107.7l.3-4.1ZM1.7,68.2c.4,1.4.8,2.7,1.3,4.1H104.8c.5-1.4.9-2.7,1.3-4.1ZM6.9,80.7a35.4,35.4,0,0,0,2.6,4.1H98.3c.9-1.3,1.8-2.7,2.6-4.1Zm9.9,12.5a47.2,47.2,0,0,0,4.8,4.1H86.1A48.3,48.3,0,0,0,91,93.2Zm21.7,12.5A51.7,51.7,0,0,0,53.9,108a52.7,52.7,0,0,0,15.4-2.3Z"/>
  </g>
</svg>
