<?xml version="1.0" encoding="utf-8"?>
<!-- Generator: Adobe Illustrator 26.0.3, SVG Export Plug-In . SVG Version: 6.00 Build 0)  -->
<svg version="1.1" id="Layer_1" xmlns="http://www.w3.org/2000/svg" xmlns:xlink="http://www.w3.org/1999/xlink" x="0px" y="0px"
	 viewBox="0 0 1024 1024" style="enable-background:new 0 0 1024 1024;" xml:space="preserve">
<style type="text/css">
	.st0{fill:#EB445A;}
</style>
<path class="st0" d="M512,0C229.2,0,0,229.2,0,512c0,282.8,229.2,512,512,512c282.8,0,512-229.2,512-512C1024,229.2,794.8,0,512,0z
	 M512,961C265,961,64,759,64,512C64,265,265,64,512,64s448,201,448,448S759,961,512,961z M693,331c-12.5-12.5-32.8-12.5-45.2,0
	L512,466.8L376.2,331c-12.5-12.5-32.8-12.5-45.3,0c-12.5,12.5-12.5,32.8,0,45.2L466.7,512L331,647.8c-12.5,12.5-12.5,32.8,0,45.2
	c12.5,12.5,32.8,12.5,45.3,0L512,557.2L647.8,693c12.5,12.5,32.8,12.5,45.2,0c12.5-12.5,12.5-32.8,0-45.2L557.2,512L693,376.2
	C705.5,363.7,705.5,343.5,693,331z"/>
</svg>
