<svg xmlns="http://www.w3.org/2000/svg" width="863.677" height="2359.325" viewBox="0 0 863.677 2359.325"><g transform="translate(-34.553 -6.049)" opacity="0.31" style="isolation:isolate"><path d="M236.721,2123.712c-14.382,76.791,65.731,236.261,226.912,241.47,194.852,6.3,319.34-142.757,261.343-386.015L434.117,636.814c-34.622-159.793-8.634-246.466,9.852-298.12C493.3,200.888,616.525,144.051,646.526,188.169c17.131,25.188,58.544,142.966-59.348,353.914C495.23,706.6,67.432,922.343,36.036,1308.424c-27.178,335.734,324.27,583.689,627.6,486.21,201.389-64.718,305.208-370.362,180.555-528.019-328.965-416.06-856.537,220.694-345.468,395.133-55.574-43.722-93.456-77.577-100.507-118.96-68.668-402.889,537.123-296.519,373.9,85.7C705,1785.652,433.889,1816.056,279.5,1675.839c-129.334-117.459-186.725-343.732-42.8-506.172C431.632,949.657,661.785,752.154,722.913,450.973,795.2,94.822,559.189-182.84,409.982,167.489c-50.065,117.554-68.716,235.56-20.776,461.69L679.834,2000.1c20.809,98.147,6.879,233.207-84.724,295.282-45.377,30.749-205.948,51.911-245.232-21.488" transform="translate(0 0)" fill="#ccdfff"/><path d="M274.057,139.383c0,76.979-61.35,139.384-137.029,139.384S0,216.362,0,139.383,61.35,0,137.029,0,274.057,62.4,274.057,139.383Z" transform="matrix(-1, -0.019, 0.019, -1, 505.89, 2279.743)" fill="#ccdfff"/></g></svg>